<?xml version="1.0" encoding="utf-8"?>
<!-- Generator: Adobe Illustrator 27.9.0, SVG Export Plug-In . SVG Version: 6.00 Build 0)  -->
<svg version="1.1" id="Layer_1" xmlns="http://www.w3.org/2000/svg" xmlns:xlink="http://www.w3.org/1999/xlink" x="0px" y="0px"
	 viewBox="0 0 140 50" style="enable-background:new 0 0 140 50;" xml:space="preserve" width="140" height="50">
<style type="text/css">
	.st0{fill:#CC2029;}
	.st1{fill:#474544;}
	.st2{fill:#494645;}
</style>
<path class="st0" d="M41.3,18.4c0.4,0.3,0.7,0.6,1,1c0,0,0.1,0.1,0.1,0.1c0,0,0.1,0.1,0.1,0.1c0.1,0.1,0.1,0.1,0.3,0.1
	c0.2-0.1,0.3-0.2,0.5-0.4c2.1-2.1,5.2-3.4,8.2-3.5c0.2,0,0.3,0,0.5,0c0.1,0,0.1,0,0.2,0c0.9,0,1.8,0.1,2.8,0.3c0.1,0,0.1,0,0.2,0.1
	c1.7,0.5,3.3,1.4,4.6,2.6c0.1,0.1,0.3,0.3,0.5,0.4c1,0.8,2,2,2.1,3.3c0,0.9-0.3,1.6-0.9,2.3c-0.6,0.6-1.4,1-2.3,1
	c-0.9,0-1.4-0.2-2-0.8c-0.2-0.2-0.4-0.4-0.6-0.6c-1.2-1.2-2.4-2.3-4.2-2.3c-1.9,0-3.5,0.5-4.8,1.8c-1.1,1.2-1.5,2.7-1.6,4.3
	c0,1.6,0.6,3,1.8,4.1c1.3,1.1,2.9,1.8,4.6,1.7c0.7-0.1,1.4-0.3,2.1-0.6c0.1,0,0.1,0,0.2-0.1c0.7-0.4,1.4-1,1.9-1.7
	c0.5-0.6,1-0.9,1.7-1.2c1.1-0.1,1.9,0.1,2.7,0.7c0.7,0.6,1,1.4,1.1,2.3c0,0.8-0.3,1.6-0.8,2.2c0,0-0.1,0.1-0.1,0.1
	c-1.1,1.4-2.5,2.5-4.2,3.3c-0.1,0-0.2,0.1-0.3,0.1c-2.9,1.2-6.5,1.3-9.4,0.1c-1.5-0.6-2.8-1.5-4-2.7c-0.2-0.2-0.3-0.2-0.5-0.3
	c-0.4,0.1-0.6,0.3-0.8,0.6c-1.7,1.5-3.7,2.6-5.9,3c-0.1,0-0.1,0-0.2,0.1c-3,0.5-6.3-0.2-8.8-2c-2.5-1.7-4.3-4.4-5-7.3
	c0,0,0-0.1,0-0.1c-0.4-1.5-0.3-3.4,0-4.9c0-0.1,0-0.1,0-0.2c0.4-1.7,1.2-3.5,2.3-4.9c0,0,0.1-0.1,0.1-0.1c2-2.5,5-4,8.2-4.4
	C35.7,15.6,38.9,16.5,41.3,18.4z M29.3,24.2c-1,1.2-1.5,2.7-1.4,4.2c0.2,1.8,1,3.1,2.3,4.3c1.4,1.1,3,1.4,4.7,1.2
	c1-0.2,2.1-0.7,2.8-1.4c0.1-0.1,0.1-0.1,0.2-0.2c0.7-0.7,1.2-1.5,1.6-2.5c0-0.1,0-0.1,0.1-0.2c0.5-1.6,0.2-3.3-0.6-4.7
	c-0.2-0.3-0.4-0.6-0.7-0.9c-0.1-0.1-0.1-0.1-0.2-0.2c-1.1-1.1-2.6-1.7-4.1-1.8C32.2,22,30.6,22.8,29.3,24.2z"/>
<path class="st1" d="M80.6,18.3c0.1,0.1,0.1,0.1,0.2,0.2c2.5,1.8,4.2,4.6,4.7,7.6c0.1,1,0.1,2,0.1,3c0,0.2,0,0.3,0,0.5
	c0,0.5,0,0.9,0,1.4c0,0.5,0,1,0,1.5c0,0.4,0,0.8,0,1.3c0,0.2,0,0.5,0,0.7c0,0.3,0,0.6,0,0.8c0,0.1,0,0.2,0,0.2c0,1.1-0.4,2-1.1,2.8
	c-0.9,0.9-2.1,1.4-3.4,1.4c-1-0.1-1.8-0.4-2.5-1.2c-0.1-0.2-0.2-0.4-0.3-0.6c-0.2,0.1-0.4,0.3-0.7,0.5c-2,1.3-4.3,1.6-6.6,1.2
	c-3-0.6-5.5-2.4-7.2-5c-0.8-1.2-1.3-2.5-1.7-3.8c0-0.1,0-0.1,0-0.2c-0.5-2.1-0.2-4.4,0.5-6.5c0-0.1,0-0.1,0.1-0.2
	c0.9-2.8,3-5.2,5.6-6.5c1-0.5,2-0.8,3.1-1.1c0.1,0,0.1,0,0.2,0C74.6,15.7,78.1,16.5,80.6,18.3z M70.3,24.6c-1.1,1.2-1.4,2.5-1.3,4.1
	c0.1,1.1,0.6,2,1.4,2.8c0.1,0.1,0.1,0.1,0.2,0.2c1,0.9,2.3,1.3,3.6,1.3c1.3,0,2.4-0.6,3.4-1.6c0.9-1.1,1.3-2.4,1.2-3.8
	c-0.1-1.4-0.9-2.6-2-3.5C74.8,22.5,72.1,22.9,70.3,24.6z"/>
<path class="st1" d="M134.6,19c0.9,0.8,1.6,1.6,2.3,2.5c0,0,0.1,0.1,0.1,0.1c1.4,2.2,1.9,4.7,1.8,7.3c0,0.2,0,0.4,0,0.5
	c0,0.4,0,0.9,0,1.3c0,0.4,0,0.8,0,1.1c0,0.6,0,1.2,0,1.7c0,0.2,0,0.4,0,0.7c0,0.3,0,0.5,0,0.8c0,0.1,0,0.3,0,0.4
	c0,1.1-0.3,2-1.1,2.9c-1,0.9-2.2,1.4-3.5,1.4c-0.9-0.1-1.7-0.5-2.3-1.2c-0.2-0.2-0.3-0.4-0.4-0.6c-0.3,0-0.4,0.2-0.6,0.4
	c-1.4,1.2-3.3,1.5-5.1,1.4c-2.2-0.2-4.5-1-6.3-2.5c-0.1-0.1-0.2-0.1-0.3-0.2c-1-0.8-1.8-1.8-2.4-2.9c0,0-0.1-0.1-0.1-0.1
	c-1.5-2.7-1.9-6.2-1-9.1c0.9-3.1,3-5.8,5.8-7.4C125.6,15.3,130.9,15.8,134.6,19z M123.4,24.6c0,0-0.1,0.1-0.1,0.1
	c-0.9,0.9-1.2,2.2-1.2,3.5c0.1,1.4,0.6,2.6,1.7,3.6c1.2,0.9,2.5,1.1,3.9,1c1.3-0.2,2.5-0.9,3.3-2c0.7-1,1.1-2.2,0.9-3.5
	c-0.3-1.4-0.9-2.6-2.1-3.4C127.8,22.6,125.1,22.8,123.4,24.6z"/>
<path class="st1" d="M103.6,18.5c0.8,0.7,1.3,1.5,1.3,2.6c0,1-0.2,2-0.9,2.8c-0.7,0.6-1.5,0.8-2.4,0.8c-1.2-0.1-2.4-0.4-3.5-0.7
	c-0.1,0-0.1,0-0.2,0c-0.1,0-0.2-0.1-0.3-0.1c-0.5-0.1-1-0.2-1.5-0.2c-0.1,0-0.2,0-0.3,0c-0.2,0-0.2,0-0.4,0.1
	c-0.1,0.2-0.1,0.3-0.2,0.5c0.6,0.5,1.5,0.5,2.3,0.7c2.1,0.3,3.9,0.9,5.5,2.3c0,0,0.1,0.1,0.1,0.1c1.3,1,2.2,2.8,2.5,4.4
	c0.2,1.7-0.2,3.4-1.2,4.7c-1.8,2.1-4.3,3-7,3.3C94,40,90.5,39.5,88,37.2c-0.9-0.8-1.5-1.9-1.6-3.1c0-1,0.1-1.8,0.8-2.6
	c0,0,0.1-0.1,0.1-0.1c0.5-0.6,1.4-1,2.1-1.1c1.3,0,2.3,0.2,3.6,0.7c1.5,0.6,3,0.9,4.6,0.9c0-0.1,0-0.2,0.1-0.4
	c-0.2-0.2-0.4-0.3-0.7-0.3c-0.1,0-0.1,0-0.2,0c-0.1,0-0.2,0-0.2-0.1c-0.1,0-0.1,0-0.2-0.1c-0.3-0.1-0.5-0.1-0.8-0.2
	c-1-0.2-2-0.4-2.9-0.7c-0.1,0-0.1,0-0.2-0.1c-1.7-0.5-3.4-1.3-4.3-2.9c-0.5-1-0.7-2-0.7-3.1c0-0.2,0-0.3,0-0.5
	c0-1.9,0.5-3.6,1.9-4.9c0.1-0.1,0.1-0.1,0.1-0.1C92.7,14.7,100,15.6,103.6,18.5z"/>
<path class="st1" d="M9.1,17.1c0.7,0.6,1,1.4,1.2,2.3c0,0.1,0,0.1,0,0.2c0.1,0.2,0.1,0.5,0.2,0.7c0,0.2,0.1,0.3,0.1,0.5
	c0.1,0.4,0.2,0.8,0.3,1.3c0.1,0.6,0.3,1.2,0.4,1.8c0.1,0.3,0.1,0.6,0.2,0.9c0,0.1,0.1,0.3,0.1,0.4c0,0.1,0,0.1,0,0.2
	c0.1,0.6,0.1,0.6,0.3,1.1c0.1-0.4,0.2-0.7,0.3-1.1c0-0.1,0.1-0.3,0.1-0.4c0.2-0.9,0.4-1.8,0.6-2.7c0-0.2,0.1-0.3,0.1-0.5
	c0-0.1,0-0.2,0.1-0.3c0-0.1,0-0.1,0-0.2c0.1-0.3,0.1-0.6,0.2-0.9c0-0.1,0.1-0.3,0.1-0.4c0-0.2,0.1-0.4,0.1-0.5
	c0.3-1.2,0.7-2.1,1.8-2.7c1.2-0.7,2.7-0.8,4.1-0.5c0.8,0.2,1.4,0.5,2.1,1c0.1,0,0.1,0.1,0.2,0.1c0.6,0.5,1.1,1.2,1.2,2
	c0.1,1-0.2,1.9-0.5,2.8c0,0.1-0.1,0.2-0.1,0.3c-0.1,0.2-0.1,0.3-0.2,0.5c-0.3,0.8-0.6,1.5-0.9,2.3c-0.2,0.4-0.3,0.8-0.5,1.2
	c-0.1,0.2-0.2,0.5-0.3,0.7c0,0,0,0.1-0.1,0.1c-0.2,0.6-0.5,1.2-0.7,1.8c-0.3,0.7-0.5,1.4-0.8,2.1c-0.2,0.5-0.4,1-0.6,1.5
	c-0.1,0.3-0.3,0.7-0.4,1c-0.1,0.2-0.1,0.3-0.2,0.5c-1.7,4.3-1.7,4.3-3.7,5.3c-1.3,0.6-2.8,0.6-4.2,0.1c-0.6-0.3-1.1-0.6-1.6-1.1
	c-0.1-0.1-0.1-0.1-0.2-0.2c-0.6-0.6-1-1.3-1.3-2.1c0-0.1,0-0.1-0.1-0.2C6.3,34.9,5.9,34,5.6,33c-0.1-0.2-0.2-0.5-0.3-0.7
	C5,31.5,4.7,30.7,4.4,30c0-0.1,0-0.1-0.1-0.2c-0.5-1.4-1-2.7-1.5-4.1c-0.2-0.6-0.4-1.1-0.6-1.7c-0.1-0.3-0.2-0.6-0.4-0.9
	c-0.1-0.1-0.1-0.3-0.2-0.4C1,20.8,1,20.8,1,19.8c0-0.1,0-0.1,0-0.2c0-0.5,0.1-0.9,0.3-1.3c0-0.1,0.1-0.1,0.1-0.2
	C2.2,17,3.6,16.4,5,16.1C6.5,15.9,7.9,16.2,9.1,17.1z"/>
<path class="st1" d="M112.9,16.9c0.9,0.8,1.4,1.8,1.4,3c0,0.5,0,1,0,1.5c0,0.2,0,0.3,0,0.5c0,0.4,0,0.9,0,1.3c0,0.5,0,0.9,0,1.4
	c0,0.8,0,1.6,0,2.5c0,0.7,0,1.5,0,2.2c0,0.9,0,1.7,0,2.6c0,0.5,0,0.9,0,1.4c0,0.4,0,0.9,0,1.3c0,0.2,0,0.3,0,0.5
	c0,1.4-0.1,2.6-1.1,3.7c-0.9,0.8-2,1.2-3.2,1.1c-1.3-0.1-2.2-0.7-3-1.7c-0.4-0.6-0.5-1.3-0.5-2.1c0-0.1,0-0.1,0-0.2
	c0-0.2,0-0.5,0-0.7c0-0.2,0-0.4,0-0.5c0-0.4,0-0.9,0-1.3c0-0.3,0-0.7,0-1c0-0.1,0-0.1,0-0.1c0-0.1,0-0.2,0-0.3c0-0.9,0-1.9,0-2.8
	c0-0.9,0-1.7,0-2.6c0-0.9,0-1.8,0-2.6c0-0.5,0-1,0-1.5c0-0.5,0-0.9,0-1.4c0-0.2,0-0.3,0-0.5c0-1.3,0.1-2.3,1-3.3
	C108.9,15.7,111.2,15.6,112.9,16.9z"/>
<path class="st2" d="M113.1,7.8c0.9,0.8,1.4,1.8,1.6,3c0.1,1.2-0.3,2.3-1.1,3.3c0,0-0.1,0.1-0.1,0.1c-0.7,0.8-1.8,1.2-2.8,1.3
	c0,0-0.1,0-0.1,0c-1.3,0.1-2.4-0.5-3.4-1.4c-0.3-0.3-0.5-0.7-0.7-1c0,0,0-0.1-0.1-0.1c-0.3-0.6-0.4-1.1-0.4-1.7c0-0.1,0-0.1,0-0.2
	c0-0.5,0.1-0.9,0.2-1.4c0-0.1,0.1-0.1,0.1-0.2c0.3-0.6,0.6-1,1-1.4c0,0,0.1-0.1,0.1-0.1C109.1,6.4,111.5,6.5,113.1,7.8z"/>
</svg>
