<?xml version="1.0" encoding="utf-8"?>
<!-- Generator: Adobe Illustrator 27.9.0, SVG Export Plug-In . SVG Version: 6.00 Build 0)  -->
<svg version="1.1" id="Layer_1" xmlns="http://www.w3.org/2000/svg" xmlns:xlink="http://www.w3.org/1999/xlink" x="0px" y="0px"
	 viewBox="0 0 140 50" style="enable-background:new 0 0 140 50;" xml:space="preserve"  width="140" height="50">
<style type="text/css">
	.st0{fill:#FFFFFF;}
	.st1{fill:#CC2029;}
</style>
<path class="st0" d="M68.1,21.7c0.2,0.2,0.4,0.4,0.6,0.6c0,0,0.1,0.1,0.1,0.1c0,0,0,0.1,0.1,0.1c0.1,0.1,0.1,0.1,0.2,0
	c0.1-0.1,0.2-0.1,0.3-0.2c1.3-1.3,3.2-2.1,5-2.1c0.1,0,0.2,0,0.3,0c0,0,0.1,0,0.1,0c0.6,0,1.1,0,1.7,0.2c0.1,0,0.1,0,0.1,0
	c1.1,0.3,2,0.8,2.8,1.6c0.1,0.1,0.2,0.2,0.3,0.2c0.6,0.5,1.2,1.2,1.3,2c0,0.6-0.2,1-0.5,1.4C80,26,79.5,26.2,79,26.3
	c-0.5,0-0.8-0.1-1.2-0.5c-0.1-0.1-0.2-0.2-0.4-0.4c-0.7-0.8-1.5-1.4-2.6-1.4c-1.1,0-2.1,0.3-3,1.1c-0.7,0.7-0.9,1.6-1,2.6
	c0,1,0.4,1.8,1.1,2.5c0.8,0.7,1.8,1.1,2.8,1c0.4-0.1,0.9-0.2,1.3-0.4c0.1,0,0.1,0,0.1-0.1c0.5-0.2,0.8-0.6,1.2-1
	c0.3-0.3,0.6-0.6,1.1-0.7c0.6,0,1.1,0,1.7,0.4c0.4,0.4,0.6,0.9,0.7,1.4c0,0.5-0.2,1-0.5,1.3c0,0,0,0-0.1,0.1c-0.7,0.9-1.5,1.5-2.6,2
	c-0.1,0-0.1,0-0.2,0.1c-1.8,0.8-4,0.8-5.8,0.1c-0.9-0.4-1.7-0.9-2.4-1.6c-0.1-0.1-0.2-0.1-0.3-0.2c-0.2,0.1-0.3,0.2-0.5,0.3
	c-1,0.9-2.3,1.6-3.6,1.8c-0.1,0-0.1,0-0.2,0c-1.9,0.3-3.9-0.1-5.4-1.2c-1.5-1.1-2.6-2.7-3.1-4.5c0,0,0-0.1,0-0.1
	c-0.2-0.9-0.2-2.1,0-3c0,0,0-0.1,0-0.1c0.3-1.1,0.7-2.1,1.4-3c0,0,0-0.1,0.1-0.1c1.2-1.5,3.1-2.5,5-2.7C64.6,20,66.6,20.5,68.1,21.7
	z M60.7,25.2c-0.6,0.7-0.9,1.7-0.9,2.6c0.1,1.1,0.6,1.9,1.4,2.6c0.9,0.6,1.8,0.9,2.9,0.7c0.6-0.1,1.3-0.4,1.7-0.8
	c0.1-0.1,0.1-0.1,0.1-0.1c0.5-0.4,0.8-0.9,1-1.5c0,0,0-0.1,0-0.1c0.3-1,0.1-2-0.4-2.9c-0.1-0.2-0.2-0.4-0.4-0.6c0,0-0.1-0.1-0.1-0.1
	c-0.6-0.7-1.6-1.1-2.5-1.1C62.5,23.9,61.5,24.4,60.7,25.2z"/>
<path class="st0" d="M92.1,21.7c0.1,0.1,0.1,0.1,0.1,0.1c1.5,1.1,2.6,2.8,2.8,4.7c0.1,0.6,0.1,1.2,0.1,1.8c0,0.1,0,0.2,0,0.3
	c0,0.3,0,0.6,0,0.9c0,0.3,0,0.6,0,0.9c0,0.3,0,0.5,0,0.8c0,0.2,0,0.3,0,0.5c0,0.2,0,0.3,0,0.5c0,0,0,0.1,0,0.1
	c0,0.7-0.2,1.2-0.7,1.7c-0.6,0.5-1.3,0.8-2.1,0.9c-0.6,0-1.1-0.3-1.5-0.8c-0.1-0.1-0.1-0.2-0.2-0.4c-0.1,0.1-0.3,0.2-0.4,0.3
	c-1.2,0.8-2.6,1-4.1,0.7c-1.8-0.4-3.4-1.5-4.4-3c-0.5-0.7-0.8-1.5-1-2.3c0,0,0-0.1,0-0.1c-0.3-1.3-0.1-2.7,0.3-3.9c0,0,0,0,0-0.1
	c0.6-1.7,1.8-3.2,3.4-4c0.6-0.3,1.2-0.5,1.9-0.7c0,0,0.1,0,0.1,0C88.4,20,90.6,20.5,92.1,21.7z M85.8,25.5C85.1,26.2,84.9,27,85,28
	c0.1,0.7,0.4,1.2,0.9,1.7c0,0,0.1,0.1,0.1,0.1c0.6,0.6,1.4,0.8,2.2,0.8c0.8,0,1.5-0.4,2.1-1c0.6-0.7,0.8-1.5,0.8-2.3
	c-0.1-0.9-0.5-1.6-1.2-2.1C88.5,24.2,86.9,24.4,85.8,25.5z"/>
<path class="st0" d="M125.1,22.1c0.5,0.5,1,1,1.4,1.6c0,0,0,0.1,0.1,0.1c0.9,1.4,1.1,2.9,1.1,4.5c0,0.1,0,0.2,0,0.3
	c0,0.3,0,0.5,0,0.8c0,0.2,0,0.5,0,0.7c0,0.4,0,0.7,0,1.1c0,0.1,0,0.3,0,0.4c0,0.2,0,0.3,0,0.5c0,0.1,0,0.2,0,0.3
	c0,0.7-0.2,1.3-0.7,1.8c-0.6,0.6-1.3,0.9-2.1,0.8c-0.6,0-1-0.3-1.4-0.7c-0.1-0.1-0.2-0.2-0.3-0.3c-0.2,0-0.3,0.1-0.4,0.2
	c-0.9,0.7-2,0.9-3.1,0.8c-1.4-0.2-2.8-0.6-3.8-1.5c-0.1,0-0.1-0.1-0.2-0.1c-0.6-0.5-1.1-1.1-1.5-1.8c0,0,0-0.1,0-0.1
	c-0.9-1.7-1.1-3.8-0.6-5.6c0.6-1.9,1.8-3.5,3.6-4.5C119.6,19.8,122.9,20.1,125.1,22.1z M118.3,25.5
	C118.2,25.5,118.2,25.6,118.3,25.5c-0.6,0.6-0.8,1.4-0.8,2.2c0.1,0.9,0.4,1.6,1,2.2c0.7,0.6,1.5,0.7,2.4,0.6c0.8-0.1,1.5-0.6,2-1.2
	c0.4-0.6,0.7-1.4,0.6-2.1c-0.2-0.8-0.6-1.6-1.3-2.1C121,24.3,119.3,24.4,118.3,25.5z"/>
<path class="st0" d="M106.1,21.8c0.5,0.4,0.8,0.9,0.8,1.6c0,0.6-0.1,1.2-0.6,1.7c-0.4,0.4-0.9,0.5-1.5,0.5c-0.7-0.1-1.4-0.2-2.2-0.4
	c0,0-0.1,0-0.1,0c-0.1,0-0.1,0-0.2-0.1c-0.3-0.1-0.6-0.1-0.9-0.1c-0.1,0-0.1,0-0.2,0c-0.1,0-0.1,0-0.2,0.1c-0.1,0.1-0.1,0.2-0.1,0.3
	c0.4,0.3,0.9,0.3,1.4,0.4c1.3,0.2,2.4,0.6,3.4,1.4c0,0,0.1,0,0.1,0.1c0.8,0.6,1.4,1.7,1.5,2.7c0.1,1-0.1,2.1-0.8,2.9
	c-1.1,1.3-2.6,1.9-4.3,2c-2,0.1-4.2-0.2-5.7-1.6c-0.5-0.5-0.9-1.2-1-1.9c0-0.6,0.1-1.1,0.5-1.6c0,0,0-0.1,0.1-0.1
	c0.3-0.3,0.8-0.6,1.3-0.6c0.8,0,1.4,0.1,2.2,0.4c0.9,0.4,1.8,0.5,2.8,0.5c0-0.1,0-0.1,0-0.2c-0.1-0.1-0.2-0.2-0.4-0.2
	c-0.1,0-0.1,0-0.1,0c0,0-0.1,0-0.1,0c-0.1,0-0.1,0-0.1,0c-0.2,0-0.3-0.1-0.5-0.1c-0.6-0.1-1.2-0.3-1.8-0.4c-0.1,0-0.1,0-0.1,0
	c-1-0.3-2.1-0.8-2.6-1.8c-0.3-0.6-0.4-1.2-0.4-1.9c0-0.1,0-0.2,0-0.3c0-1.1,0.3-2.2,1.1-3c0,0,0,0,0.1-0.1
	C99.5,19.5,104,20,106.1,21.8z"/>
<path class="st0" d="M48.3,20.9c0.4,0.4,0.6,0.9,0.7,1.4c0,0,0,0.1,0,0.1c0,0.1,0.1,0.3,0.1,0.4c0,0.1,0,0.2,0.1,0.3
	c0.1,0.3,0.1,0.5,0.2,0.8c0.1,0.4,0.2,0.7,0.2,1.1c0,0.2,0.1,0.4,0.1,0.6c0,0.1,0,0.2,0.1,0.3c0,0.1,0,0.1,0,0.1
	c0.1,0.4,0.1,0.4,0.2,0.7c0.1-0.2,0.1-0.4,0.2-0.7c0-0.1,0-0.2,0.1-0.3c0.1-0.6,0.3-1.1,0.4-1.7c0-0.1,0-0.2,0.1-0.3
	c0-0.1,0-0.1,0-0.2c0,0,0-0.1,0-0.1c0-0.2,0.1-0.4,0.1-0.6c0-0.1,0-0.2,0.1-0.3c0-0.1,0-0.2,0.1-0.3c0.2-0.7,0.4-1.3,1.1-1.7
	c0.7-0.4,1.7-0.5,2.5-0.3c0.5,0.1,0.9,0.3,1.3,0.6c0,0,0.1,0,0.1,0.1c0.4,0.3,0.7,0.8,0.7,1.2c0.1,0.6-0.1,1.1-0.3,1.7
	c0,0.1,0,0.1-0.1,0.2c0,0.1-0.1,0.2-0.1,0.3c-0.2,0.5-0.4,0.9-0.5,1.4c-0.1,0.2-0.2,0.5-0.3,0.7c-0.1,0.1-0.1,0.3-0.2,0.4
	c0,0,0,0.1,0,0.1c-0.1,0.4-0.3,0.7-0.4,1.1c-0.2,0.4-0.3,0.8-0.5,1.3c-0.1,0.3-0.2,0.6-0.4,0.9c-0.1,0.2-0.2,0.4-0.2,0.6
	c0,0.1-0.1,0.2-0.1,0.3c-1,2.6-1,2.6-2.2,3.2c-0.8,0.4-1.7,0.4-2.5,0c-0.4-0.2-0.7-0.4-1-0.7c0,0-0.1-0.1-0.1-0.1
	c-0.4-0.4-0.6-0.8-0.8-1.3c0,0,0-0.1,0-0.1c-0.2-0.6-0.5-1.2-0.7-1.8c-0.1-0.1-0.1-0.3-0.2-0.4c-0.2-0.5-0.4-1-0.5-1.4
	c0,0,0-0.1,0-0.1c-0.3-0.8-0.6-1.7-0.9-2.5c-0.1-0.3-0.3-0.7-0.4-1c-0.1-0.2-0.1-0.4-0.2-0.6c0-0.1-0.1-0.2-0.1-0.3
	c-0.4-1.2-0.4-1.2-0.4-1.7c0,0,0-0.1,0-0.1c0-0.3,0-0.5,0.2-0.8c0,0,0-0.1,0.1-0.1c0.5-0.7,1.4-1.1,2.2-1.3
	C46.7,20.2,47.6,20.4,48.3,20.9z"/>
<path class="st0" d="M111.8,20.8c0.5,0.5,0.8,1.1,0.9,1.8c0,0.3,0,0.6,0,0.9c0,0.1,0,0.2,0,0.3c0,0.3,0,0.5,0,0.8c0,0.3,0,0.6,0,0.8
	c0,0.5,0,1,0,1.5c0,0.5,0,0.9,0,1.4c0,0.5,0,1.1,0,1.6c0,0.3,0,0.6,0,0.8c0,0.3,0,0.5,0,0.8c0,0.1,0,0.2,0,0.3
	c0,0.9-0.1,1.6-0.7,2.3c-0.5,0.5-1.2,0.7-2,0.7c-0.8-0.1-1.4-0.4-1.9-1c-0.3-0.4-0.3-0.8-0.3-1.3c0,0,0-0.1,0-0.1c0-0.1,0-0.3,0-0.4
	c0-0.1,0-0.2,0-0.3c0-0.3,0-0.5,0-0.8c0-0.2,0-0.4,0-0.6c0,0,0,0,0-0.1c0-0.1,0-0.1,0-0.2c0-0.6,0-1.1,0-1.7c0-0.5,0-1,0-1.6
	c0-0.5,0-1.1,0-1.6c0-0.3,0-0.6,0-0.9c0-0.3,0-0.6,0-0.9c0-0.1,0-0.2,0-0.3c0-0.8,0-1.4,0.6-2C109.4,20.1,110.8,20,111.8,20.8z"/>
<path class="st0" d="M112,15.2c0.6,0.5,0.9,1.1,1,1.8c0,0.8-0.2,1.4-0.7,2c0,0,0,0.1-0.1,0.1c-0.4,0.5-1.1,0.8-1.7,0.8
	c0,0-0.1,0-0.1,0c-0.8,0-1.5-0.3-2.1-0.8c-0.2-0.2-0.3-0.4-0.4-0.6c0,0,0-0.1,0-0.1c-0.2-0.4-0.2-0.7-0.2-1.1c0,0,0-0.1,0-0.1
	c0-0.3,0-0.6,0.1-0.8c0,0,0-0.1,0.1-0.1c0.2-0.3,0.4-0.6,0.6-0.9c0,0,0.1-0.1,0.1-0.1C109.5,14.3,111,14.4,112,15.2z"/>
<path class="st1" d="M19.5,17.5c0.3,0.3,0.6,0.6,0.9,0.9c0,0,0.1,0.1,0.1,0.1c0,0,0.1,0.1,0.1,0.1c0.1,0.1,0.1,0.1,0.3,0.1
	c0.2-0.1,0.3-0.2,0.4-0.4c2-2,4.8-3.2,7.6-3.2c0.2,0,0.3,0,0.5,0c0.1,0,0.1,0,0.2,0c0.9,0,1.7,0.1,2.6,0.3c0.1,0,0.1,0,0.2,0
	c1.6,0.4,3.1,1.3,4.3,2.4c0.1,0.1,0.3,0.2,0.4,0.4c0.9,0.8,1.8,1.8,2,3.1c0,0.8-0.3,1.5-0.8,2.1c-0.6,0.6-1.3,0.9-2.1,1
	c-0.8,0-1.3-0.2-1.9-0.7c-0.2-0.2-0.4-0.4-0.5-0.6c-1.1-1.2-2.3-2.1-3.9-2.2c-1.7,0-3.2,0.4-4.5,1.6c-1,1.1-1.4,2.5-1.5,4
	c0,1.5,0.6,2.8,1.7,3.8c1.2,1,2.7,1.7,4.3,1.6c0.7-0.1,1.3-0.2,1.9-0.5c0.1,0,0.1,0,0.2-0.1c0.7-0.4,1.3-1,1.8-1.6
	c0.5-0.5,1-0.9,1.6-1.1c1-0.1,1.7,0.1,2.5,0.7c0.6,0.6,1,1.3,1,2.1c0,0.8-0.2,1.5-0.7,2c0,0-0.1,0.1-0.1,0.1c-1.1,1.3-2.3,2.4-3.9,3
	c-0.1,0-0.2,0.1-0.2,0.1c-2.7,1.1-6.1,1.2-8.8,0.1c-1.4-0.6-2.6-1.4-3.7-2.5c-0.2-0.1-0.3-0.2-0.5-0.3c-0.3,0.1-0.5,0.3-0.8,0.5
	c-1.6,1.4-3.4,2.4-5.6,2.8c-0.1,0-0.1,0-0.2,0c-2.8,0.5-5.9-0.2-8.3-1.8c-2.3-1.6-4-4.1-4.7-6.8c0,0,0-0.1,0-0.1
	c-0.3-1.4-0.3-3.2,0-4.6c0-0.1,0-0.1,0-0.2c0.4-1.6,1.1-3.3,2.2-4.6c0,0,0.1-0.1,0.1-0.1c1.9-2.3,4.7-3.8,7.6-4.1
	C14.2,14.9,17.2,15.7,19.5,17.5z M8.2,22.8c-0.9,1.1-1.4,2.5-1.3,4c0.1,1.6,0.9,2.9,2.2,4c1.3,1,2.8,1.3,4.4,1.1
	c1-0.2,1.9-0.6,2.6-1.3c0.1-0.1,0.1-0.1,0.2-0.2c0.7-0.6,1.2-1.4,1.5-2.3c0-0.1,0-0.1,0.1-0.2c0.4-1.5,0.2-3.1-0.5-4.4
	c-0.2-0.3-0.4-0.6-0.6-0.9c0-0.1-0.1-0.1-0.2-0.2c-1-1.1-2.4-1.6-3.8-1.7C10.9,20.8,9.5,21.5,8.2,22.8z"/>
</svg>
