<?xml version="1.0" encoding="UTF-8"?>
<svg id="Layer_1" data-name="Layer 1" xmlns="http://www.w3.org/2000/svg" viewBox="0 0 113.62 27.46">
  <defs>
    <style>
      .cls-1 {
        fill: #474544;
      }

      .cls-1, .cls-2, .cls-3 {
        stroke-width: 0px;
      }

      .cls-2 {
        fill: #cc2029;
      }

      .cls-3 {
        fill: #494645;
      }
    </style>
  </defs>
  <path class="cls-2" d="m33.26,9.6c.29.24.55.52.81.8.04.04.07.08.11.12.03.03.06.07.1.1q.1.08.22.05c.17-.07.26-.18.38-.31,1.72-1.77,4.26-2.81,6.72-2.85.13,0,.27,0,.4,0,.05,0,.09,0,.14,0,.78,0,1.52.06,2.28.26q.08.02.16.04c1.42.39,2.75,1.13,3.83,2.14.12.11.25.22.37.33.8.7,1.62,1.62,1.76,2.7.04.74-.24,1.33-.71,1.89-.51.54-1.13.79-1.86.87-.71.02-1.13-.17-1.67-.63-.17-.16-.32-.33-.48-.51-.95-1.02-2.01-1.87-3.47-1.94-1.54-.03-2.86.39-4,1.46-.92.95-1.25,2.22-1.28,3.51.04,1.29.53,2.46,1.48,3.35,1.06.9,2.41,1.48,3.82,1.39.6-.08,1.15-.21,1.7-.48q.08-.04.15-.07c.61-.33,1.12-.86,1.56-1.39.4-.46.86-.77,1.43-.96.87-.05,1.53.06,2.24.61.56.5.84,1.16.92,1.9.03.67-.21,1.28-.62,1.8-.02.03-.05.06-.07.09-.94,1.17-2.06,2.08-3.44,2.69-.07.03-.15.07-.22.1-2.38,1.02-5.38,1.05-7.79.11-1.26-.52-2.32-1.25-3.3-2.19-.14-.13-.25-.2-.43-.25-.3.07-.46.26-.67.47-1.41,1.26-3.04,2.12-4.91,2.48q-.1.02-.2.04c-2.51.43-5.2-.19-7.3-1.63-2.03-1.44-3.55-3.62-4.13-6.04,0-.04-.02-.08-.03-.12-.3-1.27-.27-2.8.03-4.06.01-.05.02-.1.04-.15.36-1.44.95-2.87,1.9-4.03.03-.03.06-.07.08-.1,1.68-2.06,4.11-3.31,6.75-3.63,2.52-.25,5.21.46,7.2,2.05Zm-9.93,4.74c-.82.96-1.26,2.23-1.19,3.5.13,1.45.83,2.6,1.92,3.52,1.15.87,2.49,1.15,3.91.99.85-.14,1.7-.56,2.34-1.13q.08-.07.16-.15c.61-.57,1.02-1.24,1.29-2.03.02-.06.04-.11.06-.17.37-1.29.15-2.7-.48-3.86-.16-.28-.33-.52-.55-.76-.04-.05-.09-.1-.13-.15-.87-.93-2.11-1.43-3.37-1.5-1.58-.03-2.89.59-3.96,1.73Z"/>
  <path class="cls-1" d="m65.69,9.54q.1.07.2.14c2.05,1.52,3.45,3.75,3.84,6.29.12.83.11,1.65.11,2.48,0,.12,0,.25,0,.37,0,.39,0,.78,0,1.17,0,.4,0,.8,0,1.2,0,.35,0,.69,0,1.04,0,.21,0,.41,0,.62,0,.23,0,.46,0,.69,0,.07,0,.13,0,.2,0,.88-.33,1.67-.93,2.32-.78.72-1.73,1.14-2.8,1.15-.86-.06-1.51-.36-2.08-1.01-.12-.16-.18-.31-.22-.5-.19.12-.37.25-.55.37-1.65,1.11-3.54,1.35-5.46.99-2.48-.51-4.54-2-5.93-4.08-.64-.98-1.1-2.03-1.38-3.16-.01-.04-.02-.08-.03-.13-.43-1.75-.15-3.64.4-5.32q.02-.07.04-.13c.77-2.33,2.44-4.25,4.61-5.38.82-.41,1.67-.7,2.55-.91.04-.01.09-.02.13-.03,2.53-.62,5.43.08,7.5,1.61Zm-8.54,5.15c-.88,1-1.17,2.05-1.1,3.36.07.91.53,1.64,1.16,2.28.04.04.08.09.13.13.8.78,1.89,1.06,2.98,1.05,1.1-.04,2.02-.53,2.78-1.32.76-.88,1.1-1.98,1.03-3.13-.11-1.17-.73-2.11-1.61-2.85-1.67-1.22-3.9-.94-5.36.48Z"/>
  <path class="cls-1" d="m110.16,10.04c.71.63,1.35,1.3,1.87,2.1.03.04.05.08.08.12,1.19,1.84,1.53,3.9,1.51,6.06,0,.14,0,.29,0,.43,0,.35,0,.71,0,1.06,0,.31,0,.63,0,.94,0,.48,0,.95-.01,1.43,0,.19,0,.37,0,.56,0,.22,0,.44,0,.66,0,.12,0,.24,0,.36-.02.92-.27,1.69-.91,2.36-.81.77-1.78,1.15-2.89,1.13-.76-.06-1.36-.44-1.86-1-.13-.15-.25-.31-.36-.47-.24.03-.36.15-.53.31-1.19,1-2.7,1.27-4.22,1.13-1.84-.2-3.74-.84-5.18-2.05-.07-.06-.14-.11-.21-.17-.83-.67-1.45-1.45-1.97-2.38-.02-.04-.04-.08-.07-.12-1.25-2.24-1.54-5.08-.86-7.54.74-2.58,2.44-4.78,4.8-6.09,3.48-1.88,7.85-1.42,10.85,1.17Zm-9.21,4.65s-.08.07-.12.11c-.73.76-.99,1.83-.97,2.86.08,1.18.53,2.16,1.39,2.97.96.75,2.03.94,3.21.85,1.08-.14,2.05-.78,2.72-1.62.6-.85.92-1.84.76-2.88-.22-1.13-.77-2.11-1.7-2.8-1.66-1.12-3.89-.93-5.29.52Z"/>
  <path class="cls-1" d="m84.59,9.67c.65.58,1.03,1.27,1.11,2.14.03.82-.19,1.68-.75,2.29-.54.49-1.25.69-1.97.66-.99-.08-1.95-.32-2.91-.55-.05-.01-.1-.02-.15-.04-.09-.02-.19-.05-.28-.07-.42-.1-.83-.16-1.26-.16-.08,0-.16,0-.24,0q-.2,0-.32.1c-.09.13-.11.25-.13.4.52.42,1.24.45,1.88.54,1.71.24,3.2.76,4.54,1.89.03.03.07.05.1.08,1.09.86,1.83,2.3,2.03,3.66.16,1.4-.16,2.77-1.03,3.9-1.5,1.77-3.51,2.51-5.78,2.7-2.72.15-5.62-.26-7.72-2.12-.71-.67-1.25-1.6-1.31-2.59-.02-.82.09-1.53.62-2.18.03-.04.06-.07.09-.11.41-.47,1.15-.82,1.76-.87,1.1-.04,1.92.14,2.93.57,1.21.52,2.44.74,3.76.71.02-.1.04-.2.06-.3-.18-.15-.31-.21-.54-.26q-.09-.02-.18-.04c-.06-.01-.13-.03-.19-.04q-.1-.02-.2-.05c-.21-.05-.43-.09-.64-.14-.81-.18-1.61-.36-2.4-.6q-.08-.02-.16-.05c-1.4-.44-2.78-1.09-3.52-2.42-.42-.8-.54-1.63-.54-2.52,0-.14,0-.27,0-.41-.01-1.54.44-2.95,1.53-4.07q.05-.06.1-.11c2.79-3.07,8.78-2.32,11.71.06Z"/>
  <path class="cls-1" d="m6.66,8.49c.55.5.81,1.17.96,1.89.01.06.03.11.04.17.04.19.08.38.12.56.03.13.06.26.09.39.08.34.15.69.23,1.03.11.49.22.97.32,1.46.06.26.11.52.17.78.03.12.05.24.08.35q.02.08.04.16.07.49.28.91c.07-.3.14-.6.21-.9.03-.11.05-.23.08-.34.17-.74.34-1.48.51-2.23.03-.13.06-.25.09-.38.02-.08.04-.17.06-.25,0-.04.02-.08.03-.13.06-.25.11-.5.17-.75.03-.12.05-.24.08-.36.03-.15.07-.3.1-.44.22-.97.59-1.69,1.45-2.25,1-.58,2.25-.63,3.36-.39.63.18,1.17.45,1.7.85.05.03.09.07.14.1.51.41.88,1.01.98,1.66.09.81-.14,1.53-.44,2.28-.03.08-.06.16-.09.24-.05.13-.11.27-.16.4-.25.62-.49,1.25-.73,1.87-.13.34-.26.67-.39,1.01-.07.19-.15.38-.22.58-.01.04-.03.08-.04.12-.19.48-.37.97-.56,1.45-.22.57-.44,1.15-.66,1.72-.16.42-.32.84-.49,1.26-.1.27-.21.54-.31.81-.05.12-.1.25-.14.37q-1.37,3.56-3.01,4.38c-1.1.48-2.32.49-3.43.06-.53-.22-.94-.52-1.34-.92-.04-.04-.08-.08-.13-.13-.48-.5-.79-1.11-1.05-1.75-.02-.05-.04-.1-.06-.15-.32-.78-.61-1.58-.91-2.37-.07-.19-.14-.38-.21-.57-.24-.65-.48-1.29-.72-1.94-.02-.05-.04-.1-.05-.15-.42-1.12-.84-2.25-1.25-3.37-.17-.46-.34-.92-.51-1.38-.1-.26-.19-.52-.29-.78-.04-.12-.09-.23-.13-.35Q0,11.53,0,10.78c0-.06,0-.11,0-.17,0-.4.05-.73.27-1.07.03-.04.05-.08.08-.13.67-.97,1.83-1.5,2.96-1.71,1.19-.16,2.38.05,3.35.8Z"/>
  <path class="cls-1" d="m92.26,8.32c.73.63,1.12,1.49,1.19,2.45.02.4.01.8.01,1.2,0,.13,0,.27,0,.4,0,.36,0,.73,0,1.09,0,.38,0,.76,0,1.14,0,.68,0,1.36,0,2.04,0,.61,0,1.23,0,1.84,0,.72,0,1.43,0,2.15,0,.38,0,.76,0,1.14,0,.36,0,.71,0,1.07,0,.13,0,.26,0,.39,0,1.17-.1,2.18-.93,3.08-.72.67-1.68.95-2.64.93-1.04-.09-1.84-.59-2.51-1.37-.37-.51-.45-1.09-.45-1.71,0-.06,0-.12,0-.18,0-.2,0-.4,0-.6,0-.14,0-.29,0-.43,0-.35,0-.7,0-1.05,0-.29,0-.57,0-.86q0-.06,0-.12c0-.08,0-.17,0-.25,0-.77,0-1.55,0-2.32,0-.71,0-1.41,0-2.12,0-.73,0-1.46,0-2.18,0-.41,0-.82,0-1.22,0-.38,0-.77,0-1.15,0-.14,0-.28,0-.42,0-1.07.06-1.86.82-2.68,1.22-1.18,3.19-1.29,4.52-.24Z"/>
  <path class="cls-3" d="m92.49.81c.74.62,1.19,1.51,1.29,2.47.06,1.02-.24,1.9-.89,2.69-.03.04-.06.08-.1.12-.59.64-1.47,1.03-2.33,1.09-.04,0-.08,0-.11,0-1.1.05-1.99-.42-2.79-1.14-.25-.26-.41-.55-.57-.86-.02-.04-.04-.08-.06-.12-.23-.48-.3-.91-.3-1.44,0-.05,0-.11,0-.16,0-.4.05-.75.2-1.12.02-.06.05-.12.07-.18.21-.46.48-.8.83-1.15.04-.04.08-.08.12-.12,1.29-1.23,3.28-1.09,4.64-.07Z"/>
</svg>